# xmcd
#
# Track frame offsets:
#	150
#	30712
#	47827
#	62377
#	76940
#	96307
#	107077
#
# Disc length: 1723 seconds
#
# Revision: 1
# Processed by: cddbd v1.4PL0 Copyright (c) Steve Scherf et al.
# Submitted via: CDmax 1.9
#
DISCID=5006b907
DTITLE=Chris Rea - Stony Road CD2
DYEAR=2002
DGENRE=Blues
TTITLE0=Sun Is Rising
TTITLE1=Got To Be Moving On
TTITLE2=Ain't Going Down This Way
TTITLE3=Catfish Girl
TTITLE4=Ride On
TTITLE5=Segway
TTITLE6=Qualified
EXTD=
EXTT0=
EXTT1=
EXTT2=
EXTT3=
EXTT4=
EXTT5=
EXTT6=
PLAYORDER=
